<?xml version="1.0" encoding="UTF-8"?>
<svg version="1.1" xmlns="http://www.w3.org/2000/svg" width="292" height="265">
<path d="M0 0 C96.36 0 192.72 0 292 0 C292 87.45 292 174.9 292 265 C195.64 265 99.28 265 0 265 C0 177.55 0 90.1 0 0 Z " fill="#F6F6F6" transform="translate(0,0)"/>
<path d="M0 0 C96.36 0 192.72 0 292 0 C292 87.45 292 174.9 292 265 C195.64 265 99.28 265 0 265 C0 177.55 0 90.1 0 0 Z M57.1875 55.15625 C40.70837837 76.57910811 34.25733311 99.61687947 34.53344727 126.37426758 C34.56243271 129.43040465 34.55399995 132.48479906 34.54101562 135.54101562 C34.55576752 151.25757606 35.4133297 166.82644868 41.75 181.4375 C42.10215576 182.27676025 42.45431152 183.11602051 42.81713867 183.98071289 C53.23405544 208.16342698 73.26882094 227.1675898 97.4375 237.375 C112.54111254 242.81629871 126.34095572 244.63200328 142.37426758 244.46655273 C145.43040465 244.43756729 148.48479906 244.44600005 151.54101562 244.45898438 C167.25851554 244.4442316 182.82521046 243.58545244 197.4375 237.25 C198.27531006 236.89929443 199.11312012 236.54858887 199.97631836 236.18725586 C206.43569968 233.40981591 212.36529429 230.23281264 218 226 C218.89589844 225.33484375 219.79179687 224.6696875 220.71484375 223.984375 C235.73096992 212.27474505 246.76796185 197.76144245 253.9375 180.125 C254.20788086 179.47966309 254.47826172 178.83432617 254.75683594 178.16943359 C260.25739847 163.63024073 260.51118119 147.82696483 260.44604492 132.49536133 C260.43749856 129.4369846 260.46648882 126.38046137 260.49804688 123.32226562 C260.60785362 92.6589643 249.81580331 67.62441635 228.63671875 45.53515625 C219.29666566 36.60323994 208.06432211 29.90198251 196.125 25.0625 C195.47982422 24.79228027 194.83464844 24.52206055 194.16992188 24.24365234 C179.63180199 18.7413294 163.82631825 18.48882155 148.49536133 18.55395508 C145.4369846 18.56250144 142.38046137 18.53351118 139.32226562 18.50195312 C107.19526161 18.38690479 78.36045198 30.55826167 57.1875 55.15625 Z " fill="#010101" transform="translate(0,0)"/>
<path d="M0 0 C3.30121026 2.74898575 4.57890568 4.83083625 5.5 9 C5.85384766 10.56041016 5.85384766 10.56041016 6.21484375 12.15234375 C6.82497995 15.14231469 7.42024635 18.13373715 8.00390625 21.12890625 C8.17921875 22.02416016 8.35453125 22.91941406 8.53515625 23.84179688 C8.88313589 25.63711404 9.22315593 27.43399468 9.5546875 29.23242188 C9.71324219 30.06451172 9.87179688 30.89660156 10.03515625 31.75390625 C10.1731665 32.49970947 10.31117676 33.2455127 10.45336914 34.01391602 C10.96902224 36.2937195 10.96902224 36.2937195 13 39 C15.98751163 39.9293093 15.98751163 39.9293093 19.546875 40.5 C20.19569641 40.62181641 20.84451782 40.74363281 21.51300049 40.86914062 C23.59000046 41.25807559 25.66946655 41.63046954 27.75 42 C29.81596549 42.3707153 31.88091002 42.74526426 33.94415283 43.13085938 C35.82657006 43.48221139 37.7115765 43.81960654 39.59667969 44.15625 C43.06810246 45.01688394 45.87471997 46.28163298 49 48 C49 48.66 49 49.32 49 50 C49.66 50 50.32 50 51 50 C52.43723849 56.94665272 52.43723849 56.94665272 50.625 61.3125 C43.9238204 68.17323149 31.73758359 68.52539216 22.7109375 70.19335938 C21.63328125 70.39896484 20.555625 70.60457031 19.4453125 70.81640625 C17.98375732 71.08626343 17.98375732 71.08626343 16.49267578 71.36157227 C13.77469462 71.91121086 13.77469462 71.91121086 11 74 C10.10151202 77.20181934 10.10151202 77.20181934 9.5703125 81.01953125 C9.32978309 82.44862767 9.08888596 83.87766225 8.84765625 85.30664062 C8.48342124 87.5570051 8.12567755 89.8081367 7.77587891 92.06079102 C7.4329395 94.23776274 7.06541142 96.40953648 6.6953125 98.58203125 C6.3861792 100.53459839 6.3861792 100.53459839 6.07080078 102.52661133 C4.61569031 107.2465969 2.01534132 109.56975777 -1.9375 112.375 C-5.02149342 113.30954346 -6.92728645 112.9406266 -10 112 C-17.27670231 107.09245658 -17.44098735 97.86933556 -19 89.875 C-19.17587646 88.97918213 -19.35175293 88.08336426 -19.53295898 87.16040039 C-19.88224561 85.36436825 -20.22309789 83.56667246 -20.55493164 81.76733398 C-20.71340576 80.93532471 -20.87187988 80.10331543 -21.03515625 79.24609375 C-21.1731665 78.50029053 -21.31117676 77.7544873 -21.45336914 76.98608398 C-21.96902224 74.7062805 -21.96902224 74.7062805 -24 72 C-27.20181934 71.10151202 -27.20181934 71.10151202 -31.01953125 70.5703125 C-32.44862767 70.32978309 -33.87766225 70.08888596 -35.30664062 69.84765625 C-37.5570051 69.48342124 -39.8081367 69.12567755 -42.06079102 68.77587891 C-44.23776274 68.4329395 -46.40953648 68.06541142 -48.58203125 67.6953125 C-50.53459839 67.3861792 -50.53459839 67.3861792 -52.52661133 67.07080078 C-57.23499659 65.61926653 -59.5198713 63.01835731 -62.375 59.125 C-63.36603099 55.75549462 -62.90109266 53.36407927 -62 50 C-57.02057729 43.81864767 -47.221836 43.42748793 -39.875 41.99609375 C-38.97918213 41.82078125 -38.08336426 41.64546875 -37.16040039 41.46484375 C-35.36424575 41.11698272 -33.56655296 40.7769597 -31.76733398 40.4453125 C-30.93532471 40.28675781 -30.10331543 40.12820312 -29.24609375 39.96484375 C-28.50029053 39.8268335 -27.7544873 39.68882324 -26.98608398 39.54663086 C-24.7062805 39.03097776 -24.7062805 39.03097776 -22 37 C-21.29244309 34.44851259 -20.76336775 32.03567403 -20.31640625 29.4375 C-20.02559636 27.90360681 -19.73457423 26.36975385 -19.44335938 24.8359375 C-18.99927913 22.41403947 -18.56093453 19.99124181 -18.12768555 17.56738281 C-17.70517448 15.22944074 -17.26183326 12.89616696 -16.81640625 10.5625 C-16.63181602 9.47183228 -16.63181602 9.47183228 -16.4434967 8.35913086 C-15.47225222 3.32905456 -15.47225222 3.32905456 -12.88647461 1.52734375 C-12.26393799 1.35332031 -11.64140137 1.17929688 -11 1 C-11 0.34 -11 -0.32 -11 -1 C-6.97230215 -2.61107914 -3.94025057 -1.47759396 0 0 Z " fill="#060606" transform="translate(153,76)"/>
<path d="M0 0 C1.07374374 -0.0066568 2.14748749 -0.0133136 3.25376892 -0.02017212 C5.51348171 -0.03023337 7.77322382 -0.03499118 10.03295898 -0.03466797 C13.43199565 -0.03902044 16.82970953 -0.07535529 20.22851562 -0.11328125 C51.89078023 -0.27737938 79.54112055 8.981046 102.40234375 31.3359375 C113.24174145 42.28358949 121.6242806 55.46002793 126.83984375 69.9609375 C127.06260986 70.58000977 127.28537598 71.19908203 127.51489258 71.83691406 C128.22692133 73.98699395 128.82573419 76.14543018 129.40234375 78.3359375 C129.66942139 79.3168335 129.93649902 80.29772949 130.21166992 81.30834961 C132.88237765 92.55889395 132.89269821 103.74866733 132.84838867 115.26831055 C132.83988537 118.63197243 132.86872207 121.99392685 132.90039062 125.35742188 C132.98960867 152.97625425 125.97589563 179.24574023 107.40234375 200.3359375 C106.726875 201.15449219 106.05140625 201.97304687 105.35546875 202.81640625 C88.77437018 222.3324803 64.48283334 233.73868145 39.40234375 237.3359375 C35.53411104 237.61340726 31.68198481 237.66326549 27.8046875 237.671875 C26.19407188 237.6818602 26.19407188 237.6818602 24.55091858 237.69204712 C22.29120579 237.70210837 20.03146368 237.70686618 17.77172852 237.70654297 C14.37269185 237.71089544 10.97497797 237.74723029 7.57617188 237.78515625 C-20.13554575 237.92787819 -46.42694751 230.9803936 -67.59765625 212.3359375 C-68.82548828 211.32273438 -68.82548828 211.32273438 -70.078125 210.2890625 C-85.73311132 196.98839195 -96.61760632 178.21131037 -101.59765625 158.3359375 C-101.98497925 156.88682983 -101.98497925 156.88682983 -102.38012695 155.40844727 C-105.01334012 144.26552653 -105.0885472 133.24116335 -105.04370117 121.83081055 C-105.03519791 118.53956324 -105.06403691 115.25006119 -105.09570312 111.95898438 C-105.20418172 79.41066191 -94.95589766 52.21786358 -72.16796875 28.84375 C-52.78755503 10.48001372 -26.5993343 0.0590636 0 0 Z M-76.41015625 42.4921875 C-92.88927788 63.91504561 -99.34032314 86.95281697 -99.06420898 113.71020508 C-99.03522354 116.76634215 -99.0436563 119.82073656 -99.05664062 122.87695312 C-99.04188873 138.59351356 -98.18432655 154.16238618 -91.84765625 168.7734375 C-91.49550049 169.61269775 -91.14334473 170.45195801 -90.78051758 171.31665039 C-80.36360081 195.49936448 -60.32883531 214.5035273 -36.16015625 224.7109375 C-21.05654371 230.15223621 -7.25670053 231.96794078 8.77661133 231.80249023 C11.8327484 231.77350479 14.88714281 231.78193755 17.94335938 231.79492188 C33.66085929 231.7801691 49.22755421 230.92138994 63.83984375 224.5859375 C64.67765381 224.23523193 65.51546387 223.88452637 66.37866211 223.52319336 C72.83804343 220.74575341 78.76763804 217.56875014 84.40234375 213.3359375 C85.29824219 212.67078125 86.19414062 212.005625 87.1171875 211.3203125 C102.13331367 199.61068255 113.1703056 185.09737995 120.33984375 167.4609375 C120.61022461 166.81560059 120.88060547 166.17026367 121.15917969 165.50537109 C126.65974222 150.96617823 126.91352494 135.16290233 126.84838867 119.83129883 C126.83984231 116.7729221 126.86883257 113.71639887 126.90039062 110.65820312 C127.01019737 79.9949018 116.21814706 54.96035385 95.0390625 32.87109375 C85.69900941 23.93917744 74.46666586 17.23792001 62.52734375 12.3984375 C61.88216797 12.12821777 61.23699219 11.85799805 60.57226562 11.57958984 C46.03414574 6.0772669 30.228662 5.82475905 14.89770508 5.88989258 C11.83932835 5.89843894 8.78280512 5.86944868 5.72460938 5.83789062 C-26.40239464 5.72284229 -55.23720427 17.89419917 -76.41015625 42.4921875 Z " fill="#121212" transform="translate(133.59765625,12.6640625)"/>
<path d="M0 0 C1.79077265 3.18071062 2.53555417 6.10094769 3.18359375 9.68359375 C3.38919922 10.77607422 3.59480469 11.86855469 3.80664062 12.99414062 C4.22639464 15.28524381 4.64307413 17.57691246 5.05664062 19.86914062 C5.26353516 20.96291016 5.47042969 22.05667969 5.68359375 23.18359375 C5.86462646 24.17931396 6.04565918 25.17503418 6.23217773 26.20092773 C7.05548463 29.2022675 8.35551617 31.37681183 10 34 C10 34.66 10 35.32 10 36 C14.39261114 37.96098712 18.81982706 38.94566221 23.5 39.9375 C25.10166013 40.28470618 26.70322192 40.63236633 28.3046875 40.98046875 C29.48949707 41.23642822 29.48949707 41.23642822 30.69824219 41.49755859 C35.81051923 42.61349688 40.90417415 43.81157418 46 45 C42.83659421 46.78049871 39.95213291 47.51826583 36.38671875 48.1484375 C35.30326172 48.34953125 34.21980469 48.550625 33.10351562 48.7578125 C30.83888036 49.16697473 28.57325286 49.57068523 26.30664062 49.96875 C17.56524192 51.60390032 17.56524192 51.60390032 10 56 C6.11911866 62.35766853 5.2867671 70.22633177 3.8125 77.4375 C3.53777999 78.75469734 3.26239498 80.07175616 2.98632812 81.38867188 C2.31767898 84.59114937 1.65579022 87.79486906 1 91 C-0.79077265 87.81928938 -1.53555417 84.89905231 -2.18359375 81.31640625 C-2.38919922 80.22392578 -2.59480469 79.13144531 -2.80664062 78.00585938 C-3.22639464 75.71475619 -3.64307413 73.42308754 -4.05664062 71.13085938 C-4.26353516 70.03708984 -4.47042969 68.94332031 -4.68359375 67.81640625 C-4.86462646 66.82068604 -5.04565918 65.82496582 -5.23217773 64.79907227 C-6.05548463 61.7977325 -7.35551617 59.62318817 -9 57 C-9 56.34 -9 55.68 -9 55 C-13.39261114 53.03901288 -17.81982706 52.05433779 -22.5 51.0625 C-24.10166013 50.71529382 -25.70322192 50.36763367 -27.3046875 50.01953125 C-28.09456055 49.8488916 -28.88443359 49.67825195 -29.69824219 49.50244141 C-34.81051923 48.38650312 -39.90417415 47.18842582 -45 46 C-41.81928938 44.20922735 -38.89905231 43.46444583 -35.31640625 42.81640625 C-34.22392578 42.61080078 -33.13144531 42.40519531 -32.00585938 42.19335938 C-29.71475619 41.77360536 -27.42308754 41.35692587 -25.13085938 40.94335938 C-24.03708984 40.73646484 -22.94332031 40.52957031 -21.81640625 40.31640625 C-20.82068604 40.13537354 -19.82496582 39.95434082 -18.79907227 39.76782227 C-15.7977325 38.94451537 -13.62318817 37.64448383 -11 36 C-10.34 36 -9.68 36 -9 36 C-7.03901288 31.60738886 -6.05433779 27.18017294 -5.0625 22.5 C-4.71529382 20.89833987 -4.36763367 19.29677808 -4.01953125 17.6953125 C-3.8488916 16.90543945 -3.67825195 16.11556641 -3.50244141 15.30175781 C-2.38650312 10.18948077 -1.18842582 5.09582585 0 0 Z " fill="#EFEFEF" transform="translate(147,86)"/>
<path d="M0 0 C3.4375 1.6875 3.4375 1.6875 6 4 C6.78375 4.680625 7.5675 5.36125 8.375 6.0625 C10.90135221 10.62936745 10.70199999 14.90318757 10 20 C8.68836474 24.4677576 6.21914525 27.18291003 2.1875 29.4375 C-2.25685634 31.33869688 -6.18448462 32.05730324 -10.8515625 30.3046875 C-16.20821785 27.59216841 -19.0939924 23.7180228 -21 18 C-21.6564209 12.42042237 -20.53398028 9.21062002 -17.40234375 4.734375 C-12.80188717 -0.95532617 -6.87153751 -0.9094682 0 0 Z " fill="#080808" transform="translate(111,158)"/>
<path d="M0 0 C1.60725635 3.21451269 1.05748185 6.43612536 1 10 C2.258125 9.938125 3.51625 9.87625 4.8125 9.8125 C7.48703401 9.82198416 8.71452998 9.83563847 11.0625 11.1875 C12 13 12 13 11.8125 15.5625 C11 18 11 18 9 20 C6.31160615 20.26991906 3.70858064 20.08737357 1 20 C1.04125 21.27875 1.0825 22.5575 1.125 23.875 C1.1953125 26.0546875 1.1953125 26.0546875 1 28 C-1 30 -1 30 -4 30.3125 C-4.99 30.209375 -5.98 30.10625 -7 30 C-9.4294516 26.3558226 -9.16179575 24.28758728 -9 20 C-10.918125 20.061875 -10.918125 20.061875 -12.875 20.125 C-15.0546875 20.1953125 -15.0546875 20.1953125 -17 20 C-19 18 -19 18 -19.25 15 C-19 12 -19 12 -17 10 C-14.31160615 9.73008094 -11.70858064 9.91262643 -9 10 C-9.061875 8.741875 -9.12375 7.48375 -9.1875 6.1875 C-9.17351956 3.55917819 -9.14785536 2.27106816 -7.875 -0.0625 C-5.009198 -1.495401 -3.00451848 -0.84910305 0 0 Z " fill="#050505" transform="translate(193,75)"/>
<path d="M0 0 C3.625 0.375 3.625 0.375 7 1 C7.625 4.375 7.625 4.375 8 8 C6 10 6 10 3 10.25 C0 10 0 10 -2 8 C-2.25 5 -2.25 5 -2 2 C-1.34 1.34 -0.68 0.68 0 0 Z " fill="#ECECEC" transform="translate(103,168)"/>
</svg>
